<svg xmlns="http://www.w3.org/2000/svg" width="200" height="200" viewBox="0 0 200 200">
  <defs>
    <linearGradient id="bg" x1="0" y1="0" x2="1" y2="1">
      <stop offset="0" stop-color="#6f4e8d"/>
      <stop offset="1" stop-color="#4b3463"/>
    </linearGradient>
    <radialGradient id="sun" cx="0.5" cy="0.5" r="0.5">
      <stop offset="0" stop-color="#f4d9a8"/>
      <stop offset="0.7" stop-color="#b98b49"/>
      <stop offset="1" stop-color="#8da67b"/>
    </radialGradient>
  </defs>
  <rect width="200" height="200" rx="44" fill="url(#bg)"/>
  <g stroke="#f4d9a8" stroke-width="4" stroke-linecap="round" opacity="0.85">
    <path d="M100 30 L100 46"/><path d="M100 154 L100 170"/>
    <path d="M30 100 L46 100"/><path d="M154 100 L170 100"/>
    <path d="M51 51 L62 62"/><path d="M138 138 L149 149"/>
    <path d="M149 51 L138 62"/><path d="M62 138 L51 149"/>
  </g>
  <circle cx="100" cy="100" r="44" fill="url(#sun)"/>
  <path d="M60 88 Q70 78 100 80 Q130 82 140 92 L140 112 Q130 120 100 118 Q70 116 60 106 Z" fill="#6f4e8d"/>
  <circle cx="88" cy="92" r="4" fill="#3d2b4f"/><circle cx="112" cy="92" r="4" fill="#3d2b4f"/>
  <path d="M86 104 Q100 114 114 104" stroke="#3d2b4f" stroke-width="3.5" fill="none" stroke-linecap="round"/>
</svg>